<?xml version="1.0" encoding="utf-8"?>
<!-- Generator: Adobe Illustrator 27.9.0, SVG Export Plug-In . SVG Version: 6.00 Build 0)  -->
<svg version="1.1" id="Ebene_1" xmlns="http://www.w3.org/2000/svg" xmlns:xlink="http://www.w3.org/1999/xlink" x="0px" y="0px"
	 viewBox="0 0 240 134" style="enable-background:new 0 0 240 134;" xml:space="preserve">
<style type="text/css">
	.st0{fill:#E60005;}
	.st1{fill:#E1E1E1;}
</style>
<polygon class="st0" points="50.3,0.5 50.3,25.6 75.4,25.6 75.4,50.8 50.3,50.8 50.3,75.9 25.1,75.9 25.1,50.8 0,50.8 0,25.6 
	25.1,25.6 25.1,0.5 "/>
<path d="M95,0.4h9c5.4,0,9.4,3.4,9.4,10.3c0,6-3.1,10.5-9.4,10.5h-9V0.4 M99.6,17.4h4.1c2.7,0,5.2-1.6,5.2-6.2c0-4.2-1.5-6.9-6-6.9
	h-3.3L99.6,17.4L99.6,17.4z"/>
<path d="M119.4,14.7c0.1,2.6,1.4,3.8,3.7,3.8c1.7,0,3-1,3.3-2h3.6c-1.2,3.6-3.6,5.1-7.1,5.1c-4.8,0-7.7-3.3-7.7-7.9s3.1-8,7.7-8
	c5.1,0,7.6,4.3,7.3,8.9L119.4,14.7 M126.1,12.1c-0.4-2.1-1.3-3.2-3.3-3.2c-2.6,0-3.4,2-3.4,3.2C119.4,12.1,126.1,12.1,126.1,12.1z"
	/>
<path d="M146.9,21.2h-3.9v-2.1h-0.1c-1.1,1.7-2.9,2.5-4.6,2.5c-4.4,0-5.5-2.5-5.5-6.2V6.1h4.1v8.5c0,2.5,0.7,3.7,2.7,3.7
	c2.2,0,3.2-1.2,3.2-4.3V6.1h4.1L146.9,21.2"/>
<path d="M155.4,6.1h3v2.8h-3v7.5c0,1.4,0.4,1.8,1.8,1.8c0.4,0,0.9,0,1.3-0.1v3.2c-0.7,0.1-1.6,0.1-2.4,0.1c-2.5,0-4.8-0.6-4.8-3.6
	V8.9h-2.5V6.1h2.5V1.6h4.1V6.1"/>
<path d="M163.9,16.3c0,1.8,1.5,2.5,3.2,2.5c1.2,0,2.7-0.5,2.7-1.9c0-1.2-1.7-1.7-4.7-2.3c-2.4-0.5-4.8-1.4-4.8-4
	c0-3.8,3.3-4.8,6.6-4.8s6.3,1.1,6.6,4.8h-3.9c-0.1-1.6-1.3-2-2.8-2c-0.9,0-2.3,0.2-2.3,1.4c0,1.5,2.3,1.7,4.7,2.2
	c2.4,0.6,4.8,1.4,4.8,4.2c0,4-3.4,5.2-6.9,5.2s-6.9-1.3-7.1-5.3H163.9"/>
<path d="M186.4,11.4c-0.3-1.7-1.3-2.6-3.1-2.6c-2.6,0-3.5,2.7-3.5,4.9s0.9,4.8,3.4,4.8c1.9,0,3-1.2,3.3-3.1h4
	c-0.5,4-3.3,6.2-7.3,6.2c-4.6,0-7.6-3.2-7.6-7.7s2.8-8.2,7.7-8.2c3.6,0,6.8,1.9,7.1,5.7L186.4,11.4"/>
<path d="M192.9,0.4h4.1v7.9h0.1c1.1-1.7,2.9-2.5,4.4-2.5c4.4,0,5.5,2.5,5.5,6.2v9.3h-4.1v-8.5c0-2.5-0.7-3.7-2.7-3.7
	c-2.2,0-3.2,1.2-3.2,4.3v7.9h-4.1L192.9,0.4"/>
<path d="M213.4,14.7c0.1,2.6,1.4,3.8,3.7,3.8c1.7,0,3-1,3.3-2h3.6c-1.2,3.6-3.6,5.1-7.1,5.1c-4.8,0-7.7-3.3-7.7-7.9s3.1-8,7.7-8
	c5.1,0,7.6,4.3,7.3,8.9L213.4,14.7 M220.2,12.1c-0.4-2.1-1.3-3.2-3.3-3.2c-2.6,0-3.4,2-3.4,3.2H220.2z"/>
<path d="M230,16.3c0,1.8,1.5,2.5,3.2,2.5c1.2,0,2.7-0.5,2.7-1.9c0-1.2-1.7-1.7-4.7-2.3c-2.4-0.5-4.8-1.4-4.8-4
	c0-3.8,3.3-4.8,6.6-4.8s6.3,1.1,6.6,4.8h-3.9c-0.1-1.6-1.3-2-2.8-2c-0.9,0-2.3,0.2-2.3,1.4c0,1.5,2.3,1.7,4.7,2.2
	c2.4,0.6,4.8,1.4,4.8,4.2c0,4-3.4,5.2-6.9,5.2s-6.9-1.3-7.1-5.3H230"/>
<path d="M95.1,27.7h11.2c3.7,0,6.1,2.6,6.1,5.8c0,2.5-1,4.3-3.3,5.2v0.1c2.2,0.6,2.9,2.8,3,4.9c0.1,1.3,0.1,3.8,0.9,4.9h-4.6
	c-0.6-1.3-0.5-3.3-0.7-5c-0.3-2.2-1.2-3.2-3.5-3.2h-4.6v8.1h-4.6L95.1,27.7 M99.6,37.1h5c2,0,3.2-0.9,3.2-3s-1.1-2.9-3.2-2.9h-5
	V37.1L99.6,37.1z"/>
<path d="M122.6,33c4.8,0,7.8,3.2,7.8,8s-3.1,7.9-7.8,7.9s-7.8-3.2-7.8-7.9S117.9,33,122.6,33 M122.6,45.8c2.8,0,3.7-2.4,3.7-4.8
	s-0.8-4.8-3.7-4.8S119,38.6,119,41S119.8,45.8,122.6,45.8"/>
<path d="M138.3,33.4h3v2.8h-3v7.5c0,1.4,0.4,1.8,1.8,1.8c0.4,0,0.9,0,1.3-0.1v3.2c-0.7,0.1-1.6,0.2-2.4,0.2c-2.5,0-4.8-0.6-4.8-3.6
	v-8.9h-2.5v-2.8h2.5v-4.5h4.1V33.4"/>
<path d="M146.9,42c0.1,2.6,1.4,3.8,3.7,3.8c1.7,0,3-1,3.3-2h3.6c-1.2,3.6-3.6,5.1-7.1,5.1c-4.8,0-7.7-3.3-7.7-7.9s3.1-8,7.7-8
	c5.1,0,7.6,4.3,7.3,9L146.9,42 M153.6,39.4c-0.4-2.1-1.3-3.2-3.3-3.2c-2.6,0-3.4,2-3.4,3.2H153.6z"/>
<path d="M163.4,43.6c0,1.8,1.6,2.5,3.2,2.5c1.2,0,2.7-0.5,2.7-1.9c0-1.2-1.7-1.7-4.7-2.3c-2.4-0.5-4.8-1.4-4.8-4
	c0-3.8,3.3-4.8,6.6-4.8s6.3,1.1,6.6,4.8h-3.9c-0.1-1.6-1.3-2-2.8-2c-0.9,0-2.3,0.2-2.3,1.4c0,1.5,2.3,1.7,4.7,2.2
	c2.4,0.6,4.8,1.4,4.8,4.2c0,4-3.4,5.2-6.9,5.2s-6.9-1.3-7.1-5.3H163.4"/>
<polygon points="95,55 99.6,55 99.6,63.6 107.7,55 113.4,55 105.3,63.2 114.2,75.8 108.5,75.8 102.2,66.4 99.6,69.1 99.6,75.8 
	95,75.8 "/>
<path d="M115.6,60.7h3.9v2.8h0.1c0.8-1.9,2.8-3.2,4.8-3.2c0.3,0,0.6,0.1,0.9,0.2v3.8c-0.4-0.1-1-0.1-1.5-0.1c-3,0-4.1,2.2-4.1,4.8
	v6.8h-4.1V60.7"/>
<path d="M129.9,69.3c0.1,2.6,1.4,3.8,3.7,3.8c1.7,0,3-1,3.3-1.9h3.6c-1.2,3.6-3.6,5.1-7.1,5.1c-4.8,0-7.7-3.3-7.7-7.9s3.1-8,7.7-8
	c5.1,0,7.6,4.3,7.3,9L129.9,69.3 M136.6,66.7c-0.4-2.1-1.3-3.2-3.3-3.2c-2.6,0-3.4,2-3.4,3.2H136.6z"/>
<path d="M157.1,75.8h-3.9v-2.1h-0.1c-1.1,1.7-2.9,2.5-4.6,2.5c-4.4,0-5.5-2.5-5.5-6.2v-9.3h4.1v8.5c0,2.5,0.7,3.7,2.6,3.7
	c2.2,0,3.2-1.2,3.2-4.3v-7.9h4.1L157.1,75.8"/>
<polygon points="159.4,72.7 167.2,63.8 159.9,63.8 159.9,60.7 172.7,60.7 172.7,63.8 164.8,72.7 173.2,72.7 173.2,75.8 159.4,75.8 
	"/>
<rect y="102" class="st1" width="240" height="2"/>
<path class="st0" d="M10.9,117.8c-0.8-0.6-1.8-0.9-3-0.9c-0.5,0-1,0.1-1.5,0.2c-0.5,0.1-0.9,0.3-1.3,0.5s-0.7,0.6-0.9,0.9
	s-0.3,0.9-0.3,1.5c0,0.6,0.2,1,0.5,1.3s0.8,0.6,1.3,0.8c0.5,0.2,1.2,0.4,1.8,0.5c0.7,0.1,1.4,0.3,2.1,0.5c0.7,0.2,1.4,0.4,2.1,0.6
	c0.7,0.2,1.3,0.5,1.8,0.9c0.5,0.4,1,0.9,1.3,1.4c0.3,0.6,0.5,1.3,0.5,2.2c0,0.9-0.2,1.8-0.6,2.4c-0.4,0.7-1,1.2-1.6,1.6
	c-0.7,0.4-1.4,0.7-2.2,0.9s-1.6,0.3-2.5,0.3c-1,0-1.9-0.1-2.8-0.4s-1.7-0.6-2.3-1.1c-0.7-0.5-1.2-1.2-1.6-1.9s-0.6-1.7-0.6-2.8h2.2
	c0,0.8,0.2,1.4,0.4,1.9c0.3,0.5,0.7,1,1.2,1.3c0.5,0.4,1,0.6,1.7,0.8c0.6,0.2,1.3,0.2,1.9,0.2c0.5,0,1.1-0.1,1.6-0.1
	c0.5-0.1,1-0.3,1.5-0.5c0.4-0.2,0.8-0.6,1.1-1s0.4-0.9,0.4-1.6c0-0.6-0.2-1.1-0.5-1.5s-0.8-0.7-1.3-0.9c-0.5-0.2-1.1-0.4-1.8-0.6
	c-0.7-0.2-1.4-0.3-2.1-0.5c-0.7-0.2-1.4-0.3-2.1-0.6c-0.7-0.2-1.3-0.5-1.8-0.8c-0.5-0.3-1-0.8-1.3-1.3c-0.3-0.5-0.5-1.2-0.5-2
	c0-0.9,0.2-1.7,0.5-2.3c0.4-0.7,0.9-1.2,1.5-1.6c0.6-0.4,1.3-0.7,2.1-0.9c0.8-0.2,1.6-0.3,2.4-0.3c0.9,0,1.8,0.1,2.6,0.3
	c0.8,0.2,1.5,0.6,2.1,1c0.6,0.5,1.1,1.1,1.4,1.8s0.5,1.6,0.6,2.5h-2.2C12.1,119.3,11.6,118.4,10.9,117.8L10.9,117.8z"/>
<path class="st0" d="M30.8,131.9c-1.2,1.1-3,1.7-5.2,1.7s-4.1-0.6-5.4-1.6c-1.3-1.1-1.9-2.8-1.9-5.2v-11.4h2.4v11.4
	c0,1.6,0.4,2.8,1.3,3.6s2.1,1.2,3.7,1.2c1.5,0,2.7-0.4,3.5-1.2s1.2-2,1.2-3.6v-11.4h2.4v11.4C32.6,129,32,130.8,30.8,131.9
	L30.8,131.9z"/>
<path class="st0" d="M47.5,117.9c-0.9-0.6-2-0.9-3.2-0.9c-1.1,0-2,0.2-2.7,0.6c-0.8,0.4-1.4,0.9-1.9,1.6c-0.5,0.7-0.8,1.4-1.1,2.3
	c-0.2,0.9-0.3,1.8-0.3,2.7c0,1,0.1,2,0.3,2.9s0.6,1.7,1.1,2.4c0.5,0.7,1.1,1.2,1.9,1.6s1.7,0.6,2.8,0.6c0.8,0,1.5-0.1,2.1-0.4
	s1.1-0.6,1.6-1.1c0.4-0.5,0.8-1,1-1.6c0.2-0.6,0.4-1.3,0.5-2.1h2.4c-0.2,2.2-1,4-2.3,5.2c-1.3,1.2-3.1,1.9-5.4,1.9
	c-1.4,0-2.6-0.2-3.6-0.7s-1.9-1.1-2.6-2c-0.7-0.8-1.2-1.8-1.5-2.9c-0.3-1.1-0.5-2.3-0.5-3.7s0.2-2.5,0.5-3.7c0.4-1.1,0.9-2.1,1.6-3
	s1.6-1.5,2.7-2c1.1-0.5,2.3-0.7,3.6-0.7c0.9,0,1.8,0.1,2.7,0.4s1.6,0.6,2.2,1.1s1.2,1.1,1.6,1.8s0.7,1.6,0.8,2.5h-2.4
	C49,119.5,48.4,118.5,47.5,117.9L47.5,117.9z"/>
<path class="st0" d="M57.4,115.4v7.7h9.4v-7.7h2.4v17.9h-2.4V125h-9.4v8.2H55v-17.8C55,115.4,57.4,115.4,57.4,115.4z"/>
<path class="st0" d="M79.4,115.4c2.8,0,4.9,0.7,6.3,2.1c1.5,1.4,2.2,3.5,2.2,6.4c0,1.5-0.2,2.8-0.5,4s-0.8,2.1-1.6,2.9
	c-0.7,0.8-1.6,1.4-2.7,1.8c-1.1,0.4-2.4,0.6-3.8,0.6h-6.1v-17.8L79.4,115.4L79.4,115.4z M79.6,131.2c0.3,0,0.6,0,1-0.1
	s0.8-0.1,1.3-0.3c0.4-0.2,0.9-0.4,1.3-0.7c0.4-0.3,0.8-0.7,1.2-1.2c0.3-0.5,0.6-1.2,0.9-1.9c0.2-0.8,0.3-1.7,0.3-2.8s-0.1-2-0.3-2.9
	c-0.2-0.8-0.6-1.6-1-2.2s-1.1-1-1.8-1.3s-1.7-0.5-2.8-0.5h-4v13.8L79.6,131.2L79.6,131.2z"/>
<path class="st0" d="M93.6,115.4v17.9h-2.4v-17.8C91.2,115.4,93.6,115.4,93.6,115.4z"/>
<path class="st0" d="M110.2,115.4v2h-9.9v5.7h9.3v2h-9.3v6.2h10v2H97.9v-17.8L110.2,115.4L110.2,115.4z"/>
<path class="st0" d="M115.9,115.4l9.4,14.5h0.1v-14.5h2.2v17.9H125l-9.3-14.3h-0.1v14.3h-2.2v-17.8L115.9,115.4L115.9,115.4z"/>
<path class="st0" d="M140.6,117.8c-0.8-0.6-1.8-0.9-3-0.9c-0.5,0-1,0.1-1.5,0.2s-0.9,0.3-1.3,0.5s-0.7,0.6-0.9,0.9s-0.3,0.9-0.3,1.5
	c0,0.6,0.2,1,0.5,1.3s0.8,0.6,1.3,0.8c0.5,0.2,1.1,0.4,1.8,0.5c0.7,0.1,1.4,0.3,2.1,0.5c0.7,0.2,1.4,0.4,2.1,0.6
	c0.7,0.2,1.3,0.5,1.8,0.9c0.5,0.4,1,0.9,1.3,1.4s0.5,1.3,0.5,2.2c0,0.9-0.2,1.8-0.6,2.4c-0.4,0.7-1,1.2-1.6,1.6
	c-0.7,0.4-1.4,0.7-2.2,0.9s-1.6,0.3-2.5,0.3c-1,0-1.9-0.1-2.8-0.4s-1.7-0.6-2.4-1.1c-0.7-0.5-1.2-1.2-1.6-1.9s-0.6-1.7-0.6-2.8h2.2
	c0,0.8,0.1,1.4,0.4,1.9c0.3,0.5,0.7,1,1.1,1.3c0.5,0.4,1,0.6,1.7,0.8c0.6,0.2,1.3,0.2,1.9,0.2c0.5,0,1.1-0.1,1.6-0.1
	c0.5-0.1,1-0.3,1.5-0.5c0.4-0.2,0.8-0.6,1.1-1s0.4-0.9,0.4-1.6c0-0.6-0.2-1.1-0.5-1.5s-0.8-0.7-1.3-0.9c-0.5-0.2-1.1-0.4-1.8-0.6
	c-0.7-0.2-1.4-0.3-2.1-0.5c-0.7-0.2-1.4-0.3-2.1-0.6c-0.7-0.2-1.3-0.5-1.8-0.8c-0.5-0.3-1-0.8-1.3-1.3c-0.3-0.5-0.5-1.2-0.5-2
	c0-0.9,0.2-1.7,0.6-2.3c0.4-0.7,0.9-1.2,1.5-1.6c0.6-0.4,1.3-0.7,2.1-0.9c0.8-0.2,1.6-0.3,2.4-0.3c0.9,0,1.8,0.1,2.6,0.3
	c0.8,0.2,1.5,0.6,2.1,1s1.1,1.1,1.4,1.8s0.5,1.6,0.6,2.5H142C141.9,119.3,141.4,118.4,140.6,117.8L140.6,117.8z"/>
<path class="st0" d="M146.2,117.4v-2h14.3v2h-5.9v15.9h-2.4v-15.8C152.2,117.4,146.2,117.4,146.2,117.4z"/>
</svg>
