<svg width="288" height="28" viewBox="0 0 288 28" xmlns="http://www.w3.org/2000/svg">
    <g fill-rule="nonzero" fill="none">
        <g fill="#F91C3D">
            <path d="M5.107 21.181c.74 0 1.262-.072 1.57-.22.306-.145.46-.43.46-.85 0-.328-.2-.616-.596-.864-.397-.246-1-.525-1.813-.836a18.292 18.292 0 0 1-1.717-.74 5.075 5.075 0 0 1-1.313-.918 3.714 3.714 0 0 1-.84-1.275c-.198-.494-.297-1.087-.297-1.783 0-1.353.496-2.422 1.489-3.209.991-.785 2.354-1.18 4.085-1.18.866 0 1.696.08 2.49.234.793.156 1.424.325 1.894.507l-.703 3.182a14.41 14.41 0 0 0-1.529-.438 8.193 8.193 0 0 0-1.854-.193c-1.263 0-1.894.355-1.894 1.07 0 .164.027.31.081.437.054.13.163.252.325.37.162.12.383.248.662.386.28.14.637.291 1.07.457.883.333 1.614.659 2.191.98.577.324 1.033.672 1.367 1.047.333.374.568.789.703 1.244.135.457.203.985.203 1.587 0 1.423-.528 2.5-1.583 3.229-1.055.729-2.548 1.093-4.479 1.093-1.263 0-2.313-.11-3.152-.329-.839-.218-1.42-.401-1.745-.547l.676-3.318c.685.274 1.389.489 2.11.644.723.156 1.436.233 2.14.233zM13.469 6.098 17.5 5.44v4.252h4.844v3.4H17.5v5.073c0 .86.15 1.545.447 2.056.298.513.898.768 1.8.768.433 0 .88-.04 1.34-.124a6.85 6.85 0 0 0 1.258-.342l.568 3.181a11.25 11.25 0 0 1-1.623.521c-.596.146-1.326.22-2.192.22-1.1 0-2.012-.152-2.733-.453-.722-.302-1.3-.722-1.732-1.262-.433-.54-.735-1.193-.907-1.961a11.69 11.69 0 0 1-.257-2.55V6.099zM29.65 9.307c1.19 0 2.181.137 2.976.411.793.275 1.43.668 1.908 1.18a4.369 4.369 0 0 1 1.015 1.864c.198.732.298 1.546.298 2.44v8.502c-.578.128-1.38.279-2.409.453-1.028.172-2.273.26-3.734.26-.92 0-1.754-.082-2.502-.247-.75-.164-1.394-.433-1.936-.808a3.685 3.685 0 0 1-1.244-1.467c-.29-.604-.433-1.345-.433-2.222 0-.84.166-1.554.5-2.14.334-.584.781-1.05 1.34-1.398.56-.346 1.2-.598 1.921-.753.721-.156 1.47-.234 2.246-.234.524 0 .988.022 1.394.068.406.046.735.105.987.178v-.384c0-.694-.208-1.252-.622-1.673-.416-.42-1.137-.631-2.165-.631-.686 0-1.363.05-2.03.15-.667.102-1.244.243-1.731.426l-.514-3.291c.234-.073.527-.152.879-.234.351-.082.735-.155 1.15-.22.415-.063.852-.118 1.312-.164.46-.043.924-.066 1.393-.066zm.324 11.956c.397 0 .776-.01 1.136-.027.36-.019.65-.046.866-.082v-3.1a7.095 7.095 0 0 0-.73-.109 7.89 7.89 0 0 0-1.963.013 2.785 2.785 0 0 0-.879.261 1.511 1.511 0 0 0-.595.521c-.145.22-.216.495-.216.823 0 .642.212 1.084.636 1.33.423.247 1.006.37 1.745.37zM38.823 6.098l4.032-.658v4.252h4.844v3.4h-4.844v5.073c0 .86.15 1.545.447 2.056.298.513.897.768 1.8.768.433 0 .879-.04 1.34-.124a6.85 6.85 0 0 0 1.257-.342l.569 3.181a11.25 11.25 0 0 1-1.624.521c-.595.146-1.326.22-2.192.22-1.1 0-2.012-.152-2.733-.453-.722-.302-1.298-.722-1.731-1.262-.433-.54-.735-1.193-.907-1.961a11.69 11.69 0 0 1-.257-2.55V6.099zM54.841 5.523c0 .75-.239 1.339-.717 1.768a2.447 2.447 0 0 1-1.692.645c-.65 0-1.213-.214-1.691-.645-.478-.43-.716-1.018-.716-1.768s.238-1.34.716-1.77a2.45 2.45 0 0 1 1.692-.645c.65 0 1.213.215 1.692.645.477.431.716 1.02.716 1.77zm-.378 18.592H50.43V9.691h4.032v14.424zM61.795 21.181c.74 0 1.262-.072 1.57-.22.306-.145.46-.428.46-.85 0-.328-.2-.616-.596-.864-.397-.246-1.001-.525-1.813-.836a18.292 18.292 0 0 1-1.718-.74 5.075 5.075 0 0 1-1.313-.918 3.714 3.714 0 0 1-.839-1.275c-.199-.494-.297-1.087-.297-1.783 0-1.353.496-2.422 1.488-3.209.992-.785 2.354-1.18 4.086-1.18.866 0 1.695.08 2.49.234.793.156 1.424.325 1.894.507l-.704 3.182a14.41 14.41 0 0 0-1.528-.438 8.19 8.19 0 0 0-1.854-.192c-1.263 0-1.894.355-1.894 1.07 0 .164.027.31.08.437.055.13.163.252.325.37.163.12.384.248.663.386.28.14.636.291 1.07.457.883.332 1.614.659 2.191.98.577.324 1.033.672 1.366 1.046.334.375.568.79.704 1.245.135.457.202.985.202 1.587 0 1.423-.527 2.5-1.582 3.229-1.056.729-2.548 1.093-4.48 1.093-1.262 0-2.312-.11-3.151-.329-.839-.218-1.42-.401-1.746-.547l.677-3.319c.685.275 1.388.49 2.11.645a10.12 10.12 0 0 0 2.139.232zM70.156 6.098l4.032-.658v4.252h4.844v3.4h-4.844v5.073c0 .86.15 1.545.447 2.056.297.513.897.768 1.8.768.433 0 .879-.04 1.34-.124a6.85 6.85 0 0 0 1.257-.342l.569 3.181a11.25 11.25 0 0 1-1.624.521c-.595.146-1.326.22-2.192.22-1.1 0-2.012-.152-2.733-.453-.722-.302-1.299-.722-1.731-1.262-.433-.54-.735-1.193-.907-1.961a11.69 11.69 0 0 1-.257-2.55V6.099zM86.175 5.523c0 .75-.239 1.339-.717 1.768a2.447 2.447 0 0 1-1.692.645c-.65 0-1.213-.214-1.692-.645-.478-.43-.716-1.018-.716-1.768s.238-1.34.716-1.77a2.45 2.45 0 0 1 1.692-.645c.65 0 1.213.215 1.692.645.477.431.717 1.02.717 1.77zm-.379 18.592h-4.031V9.691h4.031v14.424zM93.074 14.871c.397-.436.807-.89 1.23-1.363.424-.472.834-.94 1.23-1.404a164.185 164.185 0 0 0 2.028-2.412h4.794a192.262 192.262 0 0 1-2.8 3.188 78.908 78.908 0 0 1-2.99 3.133 18.81 18.81 0 0 1 1.678 1.772 43.278 43.278 0 0 1 1.677 2.128 31.547 31.547 0 0 1 1.489 2.198c.45.732.829 1.401 1.136 2.005H97.91a77.966 77.966 0 0 0-.985-1.58 39.617 39.617 0 0 0-1.175-1.732 23.76 23.76 0 0 0-1.31-1.663c-.458-.531-.913-.98-1.363-1.346v6.32h-4.032V3.493l4.032-.658v12.036h-.002z"/>
        </g>
        <g fill="#000">
            <path d="M109 11.832c.701-.148 1.807-.258 2.931-.258 1.604 0 2.635.276 3.41.905.645.481 1.032 1.221 1.032 2.202 0 1.202-.793 2.256-2.102 2.737v.036c1.18.296 2.562 1.277 2.562 3.127a3.364 3.364 0 0 1-1.051 2.497c-.866.795-2.267 1.165-4.294 1.165-1.106 0-1.954-.074-2.488-.148V11.832zm1.604 5.105h1.456c1.696 0 2.69-.888 2.69-2.09 0-1.461-1.105-2.035-2.727-2.035-.737 0-1.161.055-1.42.111v4.014zm0 5.975c.313.056.774.074 1.345.074 1.66 0 3.189-.61 3.189-2.424 0-1.702-1.457-2.404-3.207-2.404h-1.327v4.754zM119.544 19.953c.037 2.201 1.438 3.107 3.06 3.107 1.16 0 1.861-.203 2.469-.461l.276 1.164c-.571.26-1.548.555-2.967.555-2.746 0-4.386-1.813-4.386-4.513s1.585-4.827 4.184-4.827c2.911 0 3.685 2.57 3.685 4.217 0 .332-.036.592-.055.758h-6.266zm4.755-1.166c.019-1.036-.424-2.645-2.249-2.645-1.64 0-2.36 1.518-2.487 2.645h4.736zM127.508 17.973c0-1.053-.019-1.96-.074-2.793h1.42l.055 1.757h.074c.405-1.202 1.382-1.96 2.469-1.96.184 0 .313.018.46.055v1.534a2.483 2.483 0 0 0-.552-.054c-1.143 0-1.954.868-2.176 2.09-.036.222-.073.48-.073.758v4.773h-1.604v-6.16zM133.24 11h1.623v13.133h-1.622zM139.03 12.664c.018.555-.388 1-1.033 1-.572 0-.977-.445-.977-1a.99.99 0 0 1 1.014-1.016c.608 0 .995.444.995 1.016zm-1.807 11.47V15.18h1.622v8.953h-1.622zM141.168 17.603c0-.924-.019-1.683-.074-2.423h1.438l.092 1.48h.037c.442-.85 1.474-1.682 2.948-1.682 1.235 0 3.153.74 3.153 3.81v5.345h-1.623v-5.16c0-1.444-.534-2.646-2.064-2.646-1.07 0-1.899.758-2.176 1.666-.073.202-.11.48-.11.758v5.382h-1.622v-6.53zM154.624 11.832c.7-.148 1.806-.258 2.93-.258 1.604 0 2.636.276 3.41.905.645.481 1.032 1.221 1.032 2.202 0 1.202-.792 2.256-2.101 2.737v.036c1.18.296 2.561 1.277 2.561 3.127a3.363 3.363 0 0 1-1.05 2.497c-.866.795-2.267 1.165-4.294 1.165-1.106 0-1.955-.074-2.488-.148V11.832zm1.603 5.105h1.456c1.696 0 2.69-.888 2.69-2.09 0-1.461-1.106-2.035-2.727-2.035-.737 0-1.161.055-1.419.111v4.014zm0 5.975c.313.056.774.074 1.345.074 1.66 0 3.188-.61 3.188-2.424 0-1.702-1.455-2.404-3.205-2.404h-1.328v4.754zM164.192 17.973c0-1.053-.019-1.96-.074-2.793h1.419l.055 1.757h.074c.404-1.202 1.381-1.96 2.468-1.96.185 0 .313.018.46.055v1.534a2.483 2.483 0 0 0-.552-.054c-1.143 0-1.954.868-2.175 2.09-.037.222-.074.48-.074.758v4.773h-1.603v-6.16h.002zM174.698 24.133l-.128-1.128h-.055c-.498.704-1.456 1.332-2.727 1.332-1.807 0-2.728-1.276-2.728-2.571 0-2.165 1.917-3.349 5.364-3.33v-.184c0-.74-.203-2.073-2.029-2.073-.829 0-1.696.26-2.322.667l-.369-1.074c.738-.48 1.806-.794 2.93-.794 2.728 0 3.392 1.868 3.392 3.661v3.349c0 .777.036 1.535.147 2.146h-1.475zm-.24-4.569c-1.77-.038-3.778.277-3.778 2.016 0 1.054.7 1.554 1.53 1.554 1.16 0 1.898-.74 2.156-1.498.055-.166.09-.351.09-.518v-1.554h.002zM178.275 17.603c0-.924-.019-1.683-.074-2.423h1.439l.09 1.48h.038c.442-.85 1.474-1.682 2.948-1.682 1.235 0 3.152.74 3.152 3.81v5.345h-1.623v-5.16c0-1.444-.533-2.646-2.064-2.646-1.068 0-1.898.758-2.175 1.666a2.344 2.344 0 0 0-.111.758v5.382h-1.622v-6.53h.002zM195.84 11v10.82c0 .796.019 1.703.074 2.313h-1.455l-.074-1.554h-.038c-.496 1-1.584 1.757-3.04 1.757-2.156 0-3.816-1.83-3.816-4.55-.019-2.978 1.825-4.81 4-4.81 1.364 0 2.286.648 2.69 1.37h.037V11h1.623zm-1.62 7.825a2.88 2.88 0 0 0-.075-.684c-.24-1.036-1.124-1.888-2.34-1.888-1.677 0-2.673 1.48-2.673 3.46 0 1.812.885 3.311 2.635 3.311 1.088 0 2.084-.72 2.378-1.943.055-.222.074-.444.074-.702v-1.554zM199.068 19.953c.037 2.201 1.438 3.107 3.06 3.107 1.16 0 1.861-.203 2.469-.461l.276 1.164c-.571.26-1.548.555-2.968.555-2.746 0-4.386-1.813-4.386-4.513s1.585-4.827 4.184-4.827c2.911 0 3.686 2.57 3.686 4.217 0 .332-.037.592-.055.758h-6.266zm4.755-1.166c.019-1.036-.423-2.645-2.249-2.645-1.64 0-2.36 1.518-2.488 2.645h4.737zM207.03 17.603c0-.924-.018-1.683-.073-2.423h1.439l.091 1.48h.037c.443-.85 1.475-1.682 2.949-1.682 1.234 0 3.151.74 3.151 3.81v5.345h-1.622v-5.16c0-1.444-.534-2.646-2.065-2.646-1.068 0-1.898.758-2.174 1.666a2.344 2.344 0 0 0-.112.758v5.382h-1.622v-6.53h.002zM216.82 24.133c.037-.61.074-1.517.074-2.312V11h1.604v5.623h.036c.571-.999 1.604-1.645 3.041-1.645 2.213 0 3.78 1.85 3.76 4.569 0 3.2-2.01 4.79-4 4.79-1.29 0-2.322-.498-2.985-1.682h-.055l-.074 1.478h-1.4zm1.678-3.588c0 .203.036.407.074.592.312 1.128 1.253 1.906 2.432 1.906 1.696 0 2.709-1.388 2.709-3.442 0-1.793-.922-3.329-2.654-3.329-1.106 0-2.138.759-2.469 1.998-.037.186-.091.408-.091.666v1.609h-.001zM234.478 21.692c0 .925.019 1.74.074 2.441h-1.438l-.091-1.46h-.038a3.354 3.354 0 0 1-2.948 1.664c-1.401 0-3.078-.776-3.078-3.922v-5.234h1.622v4.958c0 1.702.516 2.848 1.991 2.848 1.087 0 1.844-.758 2.139-1.48a2.38 2.38 0 0 0 .147-.832v-5.494h1.622v6.511h-.002zM236.803 17.973c0-1.053-.019-1.96-.074-2.793h1.419l.055 1.757h.074c.405-1.202 1.382-1.96 2.47-1.96.183 0 .312.018.46.055v1.534a2.492 2.492 0 0 0-.554-.054c-1.142 0-1.953.868-2.174 2.09-.038.222-.074.48-.074.758v4.773H236.8v-6.16h.002zM250 15.18c-.037.647-.074 1.37-.074 2.461v5.197c0 2.054-.405 3.312-1.272 4.088-.865.814-2.119 1.074-3.243 1.074-1.069 0-2.248-.26-2.967-.74l.405-1.24c.59.37 1.512.703 2.617.703 1.66 0 2.875-.868 2.875-3.126v-.998h-.037c-.497.831-1.455 1.497-2.838 1.497-2.212 0-3.796-1.887-3.796-4.365 0-3.033 1.971-4.754 4.017-4.754 1.549 0 2.396.814 2.784 1.554h.036l.074-1.35H250zm-1.677 3.533c0-.276-.018-.518-.092-.74-.295-.942-1.087-1.72-2.266-1.72-1.549 0-2.654 1.314-2.654 3.386 0 1.757.885 3.218 2.635 3.218.996 0 1.898-.629 2.25-1.665a2.87 2.87 0 0 0 .128-.87v-1.609z"/>
        </g>
        <path fill="#F91C3D" d="M274.065 0 288 10.667 274.065 20 261 10.223z"/>
        <path d="m283.832 14 3.811-2.794a.874.874 0 0 0 0-1.412L274.518.17a.877.877 0 0 0-1.036 0l-13.125 9.625a.877.877 0 0 0 0 1.412l3.81 2.794-3.81 2.794a.877.877 0 0 0 0 1.412l13.125 9.625a.877.877 0 0 0 1.036 0l13.125-9.625a.877.877 0 0 0 0-1.412L283.833 14zM274 1.75l11.375 8.313L274 18.375l-11.375-8.312L274 1.75zm0 24.5-11.375-8.868 3.216-2.507 7.653 5.966a.823.823 0 0 0 .506.176.823.823 0 0 0 .506-.176l7.653-5.966 3.216 2.507L274 26.25z" fill="#F91C3D"/>
    </g>
</svg>
